# xmcd
#
# Track frame offsets: 
#        150
#        20936
#        40068
#        59561
#        103522
#        120822
#        147468
#        178414
#        209740
#        237044
#        280235
#
# Disc length: 4039 seconds
#
# Revision: 0
# Processed by: cddbd v1.5.2PL0 Copyright (c) Steve Scherf et al.
# Submitted via: ExactAudioCopy v1.0b1
#
DISCID=a70fc50b
DTITLE=Aynsley Lister - Tower Session
DYEAR=2010
DGENRE=British Blues Rock
TTITLE0=Soundman
TTITLE1=Sugar Low
TTITLE2=Purple Rain
TTITLE3=Quiet Boy
TTITLE4=Early Morning
TTITLE5=What's It All About
TTITLE6=Hurricane
TTITLE7=Hero
TTITLE8=With Me Tonight
TTITLE9=Crosstown Traffic
TTITLE10=In The Morning
EXTD=
EXTT0=
EXTT1=
EXTT2=
EXTT3=
EXTT4=
EXTT5=
EXTT6=
EXTT7=
EXTT8=
EXTT9=
EXTT10=
PLAYORDER=
